<?xml version="1.0" encoding="iso-8859-1"?>
<!-- Uploaded to: SVG Repo, www.svgrepo.com, Generator: SVG Repo Mixer Tools -->
<svg height="800px" width="800px" version="1.1" id="Layer_1" xmlns="http://www.w3.org/2000/svg" xmlns:xlink="http://www.w3.org/1999/xlink" 
	 viewBox="0 0 408.759 408.759" xml:space="preserve">
<g>
	<path style="fill:#FFBE00;" d="M204.385,408.759c-58.121,0-113.675-24.868-152.418-68.227
		C18.46,303.057,0.005,254.703,0.005,204.379C0.005,91.683,91.689,0,204.385,0c50.317,0,98.674,18.453,136.163,51.964
		c43.348,38.761,68.207,94.314,68.207,152.415C408.755,317.074,317.075,408.759,204.385,408.759"/>
	<path style="fill:#F4502A;" d="M377.754,204.379c0,18.08-2.77,35.52-7.909,51.901c-20.39,65.09-78.11,113.66-148.081,120.609
		c-5.719,0.58-11.51,0.87-17.379,0.87c-51.392,0-97.561-22.359-129.301-57.879c-0.26-0.29-0.521-0.591-0.79-0.881
		c-26.95-30.56-43.29-70.68-43.29-114.62c0-95.749,77.621-173.38,173.381-173.38c43.95,0,84.069,16.35,114.629,43.29
		c0.29,0.27,0.591,0.53,0.881,0.79C355.404,106.838,377.754,152.989,377.754,204.379"/>
	<path style="fill:#BA3D20;" d="M317.945,204.379l-115.563,18.269l-54.777,80.082l74.159,74.159
		c69.97-6.949,127.69-55.519,148.081-120.609L317.945,204.379"/>
	<polyline style="fill:#FFFFFF;" points="147.602,106.035 317.94,204.381 147.602,302.724 147.602,106.035 	"/>
	<path style="fill:#C29100;" d="M77.538,322.568c0.045,0.048,0.087,0.093,0.132,0.142C77.625,322.661,77.584,322.617,77.538,322.568
		 M74.476,319.197c1.001,1.132,2.022,2.255,3.052,3.36c-0.824-0.885-1.637-1.776-2.443-2.677
		C74.883,319.655,74.682,319.424,74.476,319.197 M31.036,207.746c0,0.016,0.001,0.035,0.001,0.052
		C31.037,207.779,31.036,207.765,31.036,207.746 M31.025,207.121c0.001,0.039,0.001,0.076,0.002,0.114
		C31.026,207.195,31.026,207.161,31.025,207.121 M31.017,206.529c0.001,0.071,0.002,0.142,0.003,0.213
		C31.019,206.672,31.018,206.598,31.017,206.529 M31.012,206.06c0.001,0.084,0.002,0.164,0.003,0.248
		C31.014,206.225,31.013,206.143,31.012,206.06 M31.008,205.504c0.001,0.1,0.001,0.198,0.002,0.299
		C31.009,205.704,31.008,205.603,31.008,205.504 M31.005,204.941c0,0.136,0.001,0.274,0.002,0.41
		C31.006,205.214,31.005,205.077,31.005,204.941 M31.004,204.392c0,0.146,0,0.286,0.001,0.432
		C31.004,204.682,31.004,204.534,31.004,204.392 M219.458,31.645c0.005,0,0.008,0.001,0.013,0.001
		C219.468,31.646,219.462,31.646,219.458,31.645 M218.845,31.594c0.013,0.001,0.025,0.002,0.038,0.003
		C218.87,31.596,218.858,31.595,218.845,31.594 M217.905,31.519c0.021,0.002,0.039,0.003,0.06,0.005
		C217.946,31.522,217.924,31.52,217.905,31.519 M217.314,31.474c0.024,0.002,0.044,0.003,0.067,0.005
		C217.359,31.477,217.336,31.476,217.314,31.474 M216.35,31.406c0.037,0.003,0.073,0.005,0.11,0.008
		C216.422,31.411,216.388,31.408,216.35,31.406 M215.775,31.368c0.037,0.002,0.08,0.005,0.117,0.008
		C215.854,31.373,215.813,31.37,215.775,31.368 M215.471,31.348c0.01,0.001,0.019,0.001,0.029,0.002
		C215.491,31.349,215.481,31.349,215.471,31.348 M214.806,31.307c0.048,0.003,0.09,0.005,0.138,0.008
		C214.899,31.313,214.851,31.31,214.806,31.307 M214.244,31.275c0.048,0.003,0.088,0.005,0.136,0.008
		C214.335,31.28,214.288,31.277,214.244,31.275 M213.791,31.25c0.066,0.004,0.132,0.007,0.198,0.011
		C213.925,31.257,213.855,31.254,213.791,31.25 M213.245,31.222c0.066,0.003,0.134,0.007,0.2,0.01
		C213.377,31.229,213.312,31.225,213.245,31.222 M212.683,31.194c0.085,0.004,0.171,0.008,0.256,0.012
		C212.852,31.202,212.77,31.199,212.683,31.194 M212.178,31.171c0.098,0.004,0.203,0.009,0.301,0.014
		C212.38,31.18,212.278,31.176,212.178,31.171 M211.704,31.151c0.074,0.003,0.145,0.006,0.219,0.009
		C211.853,31.157,211.774,31.154,211.704,31.151 M211.143,31.129c0.112,0.004,0.226,0.009,0.337,0.013
		C211.368,31.137,211.256,31.133,211.143,31.129 M210.607,31.109c0.117,0.004,0.233,0.008,0.35,0.013
		C210.842,31.117,210.723,31.113,210.607,31.109 M210.147,31.093c0.09,0.003,0.185,0.006,0.275,0.009
		C210.329,31.099,210.241,31.096,210.147,31.093 M209.601,31.076c0.125,0.004,0.244,0.007,0.369,0.011
		C209.848,31.084,209.724,31.08,209.601,31.076 M209.075,31.062c0.115,0.003,0.229,0.006,0.344,0.01
		C209.303,31.068,209.191,31.065,209.075,31.062 M208.588,31.049c0.104,0.002,0.211,0.005,0.314,0.008
		C208.8,31.054,208.691,31.052,208.588,31.049 M208.049,31.037c0.134,0.003,0.264,0.006,0.397,0.009
		C208.314,31.043,208.181,31.04,208.049,31.037 M207.511,31.027c0.131,0.002,0.259,0.005,0.39,0.007
		C207.769,31.032,207.643,31.029,207.511,31.027 M207.034,31.019c0.12,0.002,0.242,0.004,0.363,0.006
		C207.274,31.023,207.156,31.021,207.034,31.019 M206.487,31.012c0.139,0.002,0.283,0.004,0.422,0.006
		C206.77,31.015,206.626,31.013,206.487,31.012 M205.936,31.006c0.147,0.001,0.297,0.003,0.445,0.005
		C206.232,31.009,206.085,31.007,205.936,31.006 M205.469,31.003c0.142,0.001,0.289,0.002,0.431,0.003
		C205.758,31.005,205.612,31.004,205.469,31.003 M204.936,31c0.147,0,0.298,0.001,0.446,0.002
		C205.233,31.001,205.085,31.001,204.936,31 M204.385,30.999c0.153,0,0.309,0,0.461,0.001c-0.156,0-0.308-0.001-0.463-0.001
		 M204.383,30.999c-95.758,0-173.379,77.619-173.379,173.37c0,0.003,0,0.003,0,0.006c0-95.746,77.621-173.376,173.381-173.376
		C204.383,30.999,204.383,30.999,204.383,30.999"/>
	<path style="fill:#BA3D20;" d="M204.385,30.999c-95.76,0-173.381,77.63-173.381,173.38c0,0,0,0.01,0,0.014
		c0,0.142,0,0.289,0.001,0.432c0,0.039,0,0.078,0,0.117c0,0.137,0.001,0.273,0.002,0.41c0,0.052,0.001,0.102,0.001,0.153
		c0.001,0.099,0.001,0.2,0.002,0.299c0.001,0.084,0.001,0.173,0.002,0.257c0.001,0.083,0.002,0.165,0.003,0.248
		c0.001,0.071,0.002,0.15,0.003,0.221c0.001,0.07,0.002,0.143,0.003,0.213c0.002,0.126,0.004,0.254,0.005,0.379
		c0.001,0.04,0.001,0.074,0.002,0.114c0.003,0.171,0.006,0.34,0.009,0.511c0,0.019,0.001,0.033,0.001,0.052
		c0.827,42.702,17.084,81.614,43.439,111.399c0.206,0.227,0.407,0.458,0.609,0.683c0.806,0.902,1.619,1.793,2.443,2.677
		c0.004,0.004,0.006,0.007,0.01,0.011c0.046,0.049,0.087,0.093,0.132,0.142c4.65,4.975,9.592,9.679,14.795,14.079
		c-25.531-30.2-40.921-69.239-40.921-111.88c0-95.751,77.621-173.37,173.381-173.37c42.629,0,81.68,15.39,111.869,40.919
		c-28.747-33.992-70.353-56.765-117.322-60.812c-0.005,0-0.008-0.001-0.013-0.001c-0.19-0.016-0.385-0.033-0.575-0.049
		c-0.013-0.001-0.025-0.002-0.038-0.003c-0.295-0.024-0.584-0.048-0.88-0.07c-0.021-0.002-0.039-0.003-0.06-0.005
		c-0.175-0.013-0.349-0.027-0.524-0.04c-0.024-0.002-0.044-0.003-0.067-0.005c-0.283-0.021-0.57-0.041-0.854-0.061
		c-0.037-0.003-0.073-0.005-0.11-0.008c-0.153-0.01-0.305-0.021-0.458-0.031c-0.037-0.002-0.08-0.005-0.117-0.008
		c-0.092-0.006-0.182-0.012-0.275-0.018c-0.01-0.001-0.019-0.001-0.029-0.002c-0.176-0.011-0.352-0.022-0.527-0.032
		c-0.047-0.003-0.09-0.005-0.138-0.008c-0.144-0.009-0.283-0.017-0.427-0.025c-0.048-0.003-0.088-0.005-0.136-0.008
		c-0.086-0.005-0.169-0.009-0.255-0.014c-0.066-0.004-0.131-0.007-0.198-0.011c-0.115-0.006-0.231-0.012-0.346-0.018
		c-0.066-0.003-0.134-0.007-0.2-0.01c-0.102-0.005-0.203-0.01-0.306-0.015c-0.085-0.004-0.171-0.008-0.256-0.012
		c-0.067-0.003-0.136-0.006-0.204-0.009c-0.098-0.005-0.203-0.009-0.301-0.014c-0.087-0.004-0.169-0.007-0.255-0.011
		c-0.074-0.003-0.145-0.006-0.219-0.009c-0.077-0.003-0.146-0.006-0.223-0.009c-0.112-0.004-0.226-0.009-0.337-0.013
		c-0.061-0.002-0.125-0.005-0.186-0.007c-0.117-0.004-0.233-0.009-0.35-0.013c-0.061-0.002-0.124-0.004-0.185-0.006
		c-0.09-0.003-0.185-0.006-0.275-0.009c-0.058-0.002-0.119-0.004-0.177-0.006c-0.125-0.004-0.244-0.008-0.369-0.011
		c-0.061-0.002-0.121-0.004-0.182-0.005c-0.115-0.003-0.229-0.006-0.344-0.01c-0.058-0.002-0.114-0.003-0.172-0.004
		c-0.104-0.003-0.21-0.005-0.314-0.008c-0.048-0.001-0.094-0.002-0.142-0.003c-0.133-0.003-0.263-0.006-0.397-0.009
		c-0.048-0.001-0.1-0.002-0.148-0.003c-0.131-0.003-0.259-0.005-0.39-0.007c-0.036-0.001-0.079-0.001-0.115-0.002
		c-0.12-0.002-0.242-0.004-0.363-0.006c-0.042-0.001-0.082-0.001-0.124-0.002c-0.139-0.002-0.283-0.004-0.422-0.006
		c-0.036,0-0.071-0.001-0.106-0.001c-0.147-0.002-0.297-0.003-0.445-0.005c-0.013,0-0.023,0-0.036,0
		c-0.142-0.001-0.289-0.002-0.431-0.003c-0.029,0-0.058,0-0.088-0.001c-0.147-0.001-0.298-0.001-0.446-0.002c-0.029,0-0.06,0-0.09,0
		C204.694,31,204.538,30.999,204.385,30.999c-0.002,0-0.002,0-0.002,0"/>
</g>
</svg>