<?xml version="1.0" encoding="iso-8859-1"?>
<!-- Uploaded to: SVG Repo, www.svgrepo.com, Generator: SVG Repo Mixer Tools -->
<svg height="800px" width="800px" version="1.1" id="Layer_1" xmlns="http://www.w3.org/2000/svg" xmlns:xlink="http://www.w3.org/1999/xlink" 
	 viewBox="0 0 408.761 408.761" xml:space="preserve">
<g>
	<path style="fill:#FFBE00;" d="M204.385,408.761c-58.121,0-113.674-24.868-152.417-68.227
		C18.461,303.059,0.006,254.705,0.006,204.381C0.006,91.685,91.69,0,204.385,0c50.317,0,98.674,18.456,136.165,51.966
		c43.346,38.761,68.205,94.314,68.205,152.415C408.756,317.077,317.076,408.761,204.385,408.761"/>
	<path style="fill:#F4502A;" d="M377.753,204.379c0,5.78-0.281,11.49-0.84,17.129c-1.171,11.99-3.571,23.629-7.071,34.77
		c-20.259,64.68-77.39,113.05-146.77,120.47c-0.43,0.05-0.87,0.1-1.309,0.14c-5.721,0.58-11.51,0.87-17.38,0.87
		c-51.39,0-97.561-22.361-129.301-57.88c-0.26-0.29-0.521-0.589-0.79-0.879c-26.95-30.56-43.29-70.682-43.29-114.62
		C31.001,108.628,108.622,31,204.382,31c43.95,0,84.069,16.348,114.629,43.289c0.29,0.27,0.591,0.53,0.881,0.79
		C355.401,106.838,377.753,152.987,377.753,204.379"/>
	<path style="fill:#C29100;" d="M76.984,321.972c0.035,0.038,0.069,0.075,0.104,0.112C77.052,322.046,77.019,322.01,76.984,321.972
		 M74.576,319.311c0.781,0.881,1.57,1.754,2.369,2.619c-0.627-0.68-1.247-1.363-1.863-2.052
		C74.914,319.691,74.746,319.5,74.576,319.311"/>
	<path style="fill:#BA3D20;" d="M204.385,31.001c-95.76,0-173.38,77.619-173.38,173.37c0,44.096,16.456,84.346,43.57,114.939
		c0.17,0.189,0.338,0.38,0.506,0.567c0.616,0.689,1.236,1.373,1.863,2.052c0.012,0.013,0.026,0.028,0.039,0.042
		c0.036,0.039,0.068,0.074,0.104,0.112c4.821,5.21,9.955,10.121,15.378,14.707c-25.53-30.2-40.919-69.241-40.919-111.879
		c0-95.751,77.619-173.37,173.38-173.37c42.629,0,81.68,15.39,111.87,40.919C305.007,54.871,257.486,31.001,204.385,31.001"/>
	<path style="fill:#BA3D20;" d="M193.339,109.611c-4.187,0-7.507,0.512-9.597,1.687c-16.001,9-56.231,40.14-56.231,40.14
		l120.551,120.541l-8.28,16.95l-113.3-113.299c0,0-36.74,32.668-1.411,89.34l1.789,15.57l96.211,96.209
		c69.38-7.42,126.51-55.791,146.77-120.47c3.499-11.141,5.9-22.78,7.071-34.77l-89.281-89.27
		C287.632,132.239,221.206,109.608,193.339,109.611"/>
	<path style="fill:#FFFFFF;" d="M312.381,199.086c0,15.47-3.44,30.16-9.6,43.34l-19.43-10.37c4.52-10.07,7.03-21.23,7.03-32.97
		c0-44.59-36.28-80.87-80.87-80.87c-17.36,0-33.88,5.45-47.63,15.51l18.46,20.55l-52.83-2.84l2.84-52.83l16.77,18.68
		c17.84-13.66,39.54-21.07,62.39-21.07C266.23,96.216,312.381,142.366,312.381,199.086z"/>
	<path style="fill:#FFFFFF;" d="M97.456,208.601c0-15.47,3.44-30.16,9.6-43.34l19.43,10.37c-4.52,10.07-7.03,21.23-7.03,32.97
		c0,44.59,36.28,80.87,80.87,80.87c17.36,0,33.88-5.45,47.63-15.51l-18.46-20.55l52.83,2.84l-2.84,52.83l-16.77-18.68
		c-17.84,13.66-39.54,21.07-62.39,21.07C143.605,311.471,97.456,265.321,97.456,208.601z"/>
</g>
</svg>